<?xml version="1.0" encoding="UTF-8"?>
<svg width="100" height="100" version="1.1" viewBox="0 0 26.458 26.458" xmlns="http://www.w3.org/2000/svg">
 <path transform="translate(.22917 -.89135)" d="m8.3703 12.096s0.70639 5.7866 0.49244 3.8416c-0.30204-2.7459 0.017222-4.0766 0.68334-4.7723 1.3158-1.3743-1.5097-1.1262-0.70346-1.231zm9.2595 0s-0.70639 5.7866-0.49244 3.8416c0.30204-2.7459-0.01722-4.0766-0.68334-4.7723-1.3158-1.3743 1.5097-1.1262 0.70346-1.231zm-6.7977-2.7268c-0.12504 8.951e-4 -0.27438 0.075877-0.37109 0.37109l-0.28711 0.87305c-0.08792 0.26838-0.24179 0.13309-0.49023 0.34766-0.79503 0.68661-1.0527 1.8558-0.99805 2.8887 0.10547 1.9927 0.5957 5.6875 0.5957 5.6875s1.4654 1.5169 1.9863 2.4219c0.48099 0.83552 1.0117 2.709 1.0117 2.709l0.7207-0.035157 0.7207 0.03516s0.53073-1.8735 1.0117-2.709c0.52098-0.90497 1.9863-2.4219 1.9863-2.4219s0.49024-3.6948 0.5957-5.6875c0.05466-1.0328-0.20302-2.2021-0.99805-2.8887-0.24844-0.21457-0.40231-0.07928-0.49023-0.34766l-0.28711-0.87305c-0.19342-0.59043-0.5957-0.29883-0.5957-0.29883l-1.9434 0.99805-1.9434-0.99805s-0.09957-0.073161-0.22461-0.072266z" fill="#10031c" stroke="#51d7c1" stroke-width=".52917"/>
 <path transform="matrix(.44968 0 0 .44968 -7.4419 -79.401)" d="m45.969 180.84c-6.8276 0.16307-11.172 4.5566-11.172 4.5566-7.1524 2.2917-11.152 6.6543-11.152 6.6543-1.0252-3.1107 7.0547-8.582 7.0547-8.582-4.3932-0.52718-16.552 6.3668-12.939 13.34 3.0126 5.8152 12.302 1.9975 14.385 0.98437 0 0-0.87695 4.1822 0.72461 8.418 0 0 1.2671 3.1434-0.25977 10.055 0 0 1.7679 4.7021 7.7148 7.1934 0 0-0.08923-1.1124-0.67188-1.9863-0.58264-0.87396-1.4467-2.622-1.6074-4.832 0 0-0.08476-0.60818-0.56055-4.9336-0.67169-6.1064 0.0382-9.0661 1.5195-10.613 2.8842-3.0124 5.1827 0.74162 6.9648 0.62696 1.7822 0.11466 4.0807-3.6393 6.9648-0.62696 1.4813 1.5472 2.1912 4.5068 1.5195 10.613-0.47579 4.3254-0.56055 4.9336-0.56055 4.9336-0.16073 2.21-1.0248 3.9581-1.6074 4.832-0.58264 0.87396-0.67188 1.9863-0.67188 1.9863 5.9469-2.4913 7.7148-7.1934 7.7148-7.1934-1.5269-6.9113-0.25977-10.055-0.25977-10.055 1.6016-4.2357 0.72461-8.418 0.72461-8.418 2.0831 1.0131 11.372 4.8308 14.385-0.98437 3.6125-6.973-8.5462-13.867-12.939-13.34 0 0 8.0799 5.4714 7.0547 8.582 0 0-4-4.3626-11.152-6.6543 0 0-4.3443-4.3936-11.172-4.5566z" fill="#10031c" stroke="#51d7c1" stroke-width="1.1768"/>
</svg>